<svg width="17" height="16" viewBox="0 0 17 16" fill="none">
<g clip-path="url(#clip0_303_96)">
<path d="M7.41064 0H9.41064V8H7.41064V0ZM11.4106 0.59375L11.4575 0.609375C12.1867 0.911458 12.8534 1.3099 13.4575 1.80469C14.0617 2.29948 14.5825 2.86719 15.02 3.50781C15.4575 4.14844 15.7987 4.84896 16.0435 5.60938C16.2882 6.36979 16.4106 7.16667 16.4106 8C16.4106 9.10417 16.2023 10.1432 15.7856 11.1172C15.369 12.0911 14.7987 12.9401 14.0747 13.6641C13.3507 14.388 12.5018 14.9583 11.5278 15.375C10.5539 15.7917 9.51481 16 8.41064 16C7.30648 16 6.26742 15.7917 5.29346 15.375C4.3195 14.9583 3.47054 14.388 2.74658 13.6641C2.02262 12.9401 1.45231 12.0911 1.03564 11.1172C0.618978 10.1432 0.410645 9.10417 0.410645 8C0.410645 7.16667 0.53304 6.36979 0.777832 5.60938C1.02262 4.84896 1.36377 4.14844 1.80127 3.50781C2.23877 2.86719 2.76481 2.29688 3.37939 1.79688C3.99398 1.29688 4.67106 0.895833 5.41064 0.59375L5.37939 2.82812C4.94189 3.08854 4.53825 3.40104 4.16846 3.76562C3.79867 4.13021 3.48356 4.53385 3.22314 4.97656C2.96273 5.41927 2.76221 5.89583 2.62158 6.40625C2.48096 6.91667 2.41064 7.44792 2.41064 8C2.41064 8.83333 2.56689 9.61458 2.87939 10.3438C3.19189 11.0729 3.62158 11.7083 4.16846 12.25C4.71533 12.7917 5.35075 13.2188 6.07471 13.5312C6.79867 13.8438 7.57731 14 8.41064 14C9.24398 14 10.0226 13.8438 10.7466 13.5312C11.4705 13.2188 12.106 12.7917 12.6528 12.25C13.1997 11.7083 13.6294 11.0729 13.9419 10.3438C14.2544 9.61458 14.4106 8.83333 14.4106 8C14.4106 7.44792 14.3403 6.91667 14.1997 6.40625C14.0591 5.89583 13.856 5.41927 13.5903 4.97656C13.3247 4.53385 13.007 4.1276 12.6372 3.75781C12.2674 3.38802 11.8586 3.07292 11.4106 2.8125V0.59375Z" fill="white"/>
</g>
<defs>
<clipPath id="clip0_303_96">
<rect width="16" height="16" fill="white" transform="translate(0.410645)"/>
</clipPath>
</defs>
</svg>
